<svg xmlns="http://www.w3.org/2000/svg" viewBox="0 0 512 512"><path d="M466.292 289.442c-12.614 0-23.685 6.729-29.813 16.787l-16.024-5.206A170.09 170.09 0 0 0 426.5 256c0-15.58-2.112-30.675-6.045-45.024l16.023-5.206c6.128 10.058 17.2 16.789 29.815 16.789 19.236 0 34.886-15.65 34.886-34.887s-15.649-34.886-34.886-34.886-34.887 15.649-34.887 34.886c0 .971.05 1.93.129 2.882l-16.034 5.21c-10.901-28.769-29.371-53.842-52.97-72.78l9.951-13.696a34.688 34.688 0 0 0 13.487 2.714c19.236 0 34.887-15.65 34.887-34.887s-15.65-34.886-34.887-34.886-34.886 15.649-34.886 34.886c0 8.687 3.198 16.635 8.47 22.749l-9.953 13.699c-24.801-16.351-54.095-26.407-85.6-27.869V68.836c15.392-3.627 26.886-17.466 26.886-33.949C290.885 15.65 275.236 0 256 0s-34.887 15.649-34.887 34.886c0 16.483 11.495 30.323 26.887 33.949v16.858c-31.506 1.463-60.8 11.519-85.598 27.869l-9.953-13.699c5.272-6.113 8.47-14.062 8.47-22.748 0-19.236-15.65-34.886-34.886-34.886S91.146 57.878 91.146 77.115s15.65 34.887 34.886 34.887c4.779 0 9.335-.968 13.486-2.714l9.951 13.696c-23.599 18.938-42.068 44.011-52.97 72.78l-16.034-5.21c.078-.951.129-1.91.129-2.881 0-19.236-15.65-34.886-34.887-34.886-19.236 0-34.886 15.649-34.886 34.886s15.65 34.886 34.886 34.886c12.615 0 23.686-6.73 29.814-16.787l16.023 5.206A170.111 170.111 0 0 0 85.5 256c0 15.58 2.112 30.675 6.045 45.024l-16.023 5.207c-6.128-10.058-17.2-16.788-29.814-16.788-19.236 0-34.886 15.65-34.886 34.887s15.65 34.886 34.886 34.886 34.886-15.649 34.886-34.886c0-.971-.05-1.93-.129-2.882l16.035-5.21c10.901 28.769 29.37 53.842 52.97 72.78l-9.951 13.696A34.687 34.687 0 0 0 126.033 400c-19.237 0-34.887 15.65-34.887 34.887s15.65 34.886 34.887 34.886c19.236 0 34.886-15.649 34.886-34.886 0-8.686-3.198-16.635-8.47-22.748l9.954-13.7c24.798 16.35 54.092 26.406 85.598 27.869v16.857c-15.392 3.627-26.886 17.466-26.886 33.949C221.114 496.349 236.763 512 256 512s34.887-15.65 34.887-34.887c0-16.483-11.495-30.323-26.887-33.949v-16.857c31.506-1.463 60.8-11.519 85.599-27.869l9.953 13.699c-5.272 6.113-8.471 14.062-8.471 22.748 0 19.236 15.65 34.887 34.887 34.887s34.886-15.65 34.886-34.887-15.649-34.886-34.886-34.886a34.71 34.71 0 0 0-13.487 2.714l-9.951-13.697c23.599-18.938 42.069-44.011 52.97-72.781l16.035 5.21a35.237 35.237 0 0 0-.129 2.883c0 19.236 15.649 34.887 34.886 34.887s34.887-15.65 34.887-34.887-15.651-34.886-34.887-34.886zm0-120.656c10.414 0 18.886 8.472 18.886 18.886s-8.472 18.887-18.886 18.887-18.887-8.473-18.887-18.887 8.473-18.886 18.887-18.886zM385.967 58.229c10.414 0 18.887 8.472 18.887 18.886s-8.473 18.887-18.887 18.887-18.886-8.473-18.886-18.887 8.471-18.886 18.886-18.886zM107.146 77.115c0-10.414 8.472-18.886 18.886-18.886s18.886 8.472 18.886 18.886-8.472 18.887-18.886 18.887-18.886-8.473-18.886-18.887zM45.707 206.558c-10.414 0-18.886-8.472-18.886-18.886s8.472-18.886 18.886-18.886 18.887 8.472 18.887 18.886-8.473 18.886-18.887 18.886zm.001 136.656c-10.414 0-18.886-8.472-18.886-18.886s8.472-18.887 18.886-18.887 18.886 8.473 18.886 18.887-8.472 18.886-18.886 18.886zm80.324 110.557c-10.414 0-18.887-8.472-18.887-18.886s8.473-18.887 18.887-18.887 18.886 8.473 18.886 18.887-8.472 18.886-18.886 18.886zm278.821-18.887c0 10.414-8.472 18.887-18.886 18.887s-18.887-8.473-18.887-18.887 8.473-18.886 18.887-18.886 18.886 8.472 18.886 18.886zM237.113 34.886C237.113 24.472 245.586 16 256 16s18.886 8.472 18.886 18.886S266.414 53.772 256 53.772s-18.887-8.472-18.887-18.886zm37.773 442.227c0 10.414-8.473 18.887-18.887 18.887s-18.886-8.473-18.886-18.887 8.472-18.886 18.886-18.886 18.887 8.472 18.887 18.886zM256 410.5c-85.191 0-154.5-69.309-154.5-154.5S170.808 101.5 256 101.5 410.5 170.808 410.5 256 341.191 410.5 256 410.5zm210.292-67.286c-10.414 0-18.886-8.473-18.886-18.887s8.472-18.886 18.886-18.886 18.887 8.472 18.887 18.886-8.473 18.887-18.887 18.887zM346.653 187.942h-44.39v-7.351c0-12.876-10.475-23.351-23.35-23.351h-45.827c-12.876 0-23.351 10.475-23.351 23.351v7.351h-44.391c-8.464 0-15.35 6.887-15.35 15.351v34.968c0 7.506 2.94 14.219 8.735 20.003v60.943c0 12.321 10.023 22.345 22.344 22.345h149.846c12.321 0 22.346-10.023 22.346-22.345v-60.942c5.797-5.787 8.736-12.499 8.736-20.004v-34.968c.003-8.464-6.884-15.351-15.348-15.351zm-133.832 16h86.355v15.9c0 .647-.567 1.216-1.215 1.216h-83.925c-.647 0-1.216-.568-1.216-1.216v-15.9zm12.915-23.351c0-4.053 3.298-7.351 7.351-7.351h45.827c4.053 0 7.35 3.298 7.35 7.351v7.351h-60.527v-7.351zm-59.74 23.351h30.826v15.9c0 9.493 7.723 17.216 17.215 17.216h83.925c9.492 0 17.215-7.723 17.215-17.216v-15.9h30.827v34.318c0 2.367-.603 6.01-5.809 10.283a36.795 36.795 0 0 1-3.672 2.624c-9.43 5.967-30.462 10.409-56.936 12.115-4.171-8.849-13.174-14.99-23.588-14.99-10.418 0-19.424 6.147-23.593 15.003-26.439-1.693-47.469-6.141-56.931-12.127a36.687 36.687 0 0 1-3.668-2.624c-5.208-4.275-5.811-7.917-5.811-10.284v-34.318zm90.003 60.35c5.55 0 10.064 4.515 10.064 10.063s-4.515 10.063-10.064 10.063-10.063-4.515-10.063-10.063 4.514-10.063 10.063-10.063zm74.923 61.259H181.075a6.352 6.352 0 0 1-6.344-6.345v-50.533c15.923 6.671 39.026 9.406 55.662 10.523 2.276 12.065 12.889 21.223 25.606 21.223 12.722 0 23.338-9.164 25.609-21.236 16.648-1.124 39.76-3.863 55.66-10.514v50.537a6.353 6.353 0 0 1-6.346 6.345z"/></svg>